<?xml version="1.0" encoding="iso-8859-1"?>
<!-- Generator: Adobe Illustrator 19.0.0, SVG Export Plug-In . SVG Version: 6.00 Build 0)  -->
<svg version="1.1" id="Capa_1" xmlns="http://www.w3.org/2000/svg" xmlns:xlink="http://www.w3.org/1999/xlink" x="0px" y="0px"
	 viewBox="0 0 512 512" style="enable-background:new 0 0 512 512;" xml:space="preserve">
<g>
	<g>
		<path d="M256,0C114.844,0,0,114.844,0,256s114.844,256,256,256s256-114.844,256-256S397.156,0,256,0z M256,490.667
			C126.604,490.667,21.333,385.396,21.333,256c0-60.866,23.488-116.212,61.628-157.956l49.742,49.742l34.859,219.589
			c2.406,21.635,20.646,37.958,42.417,37.958h92.042c21.771,0,40.01-16.323,42.344-37.458l1.155-7.272l68.436,68.436
			C372.212,467.178,316.866,490.667,256,490.667z M187.022,171.939c27.896,1.831,46.324,5.417,65.27,9.186
			c24.727,4.922,50.522,9.947,98.421,10.717l-19.694,124.092L187.022,171.939z M326.887,341.97l-3.658,23.051
			C322.031,375.844,312.906,384,302.021,384h-92.042c-10.885,0-20.01-8.156-21.281-19.479l-30.327-191.066L326.887,341.97z
			 M256.458,160.208c-23.602-4.701-47.962-9.536-91.802-10.635l-11.977-11.977L151.156,128h209.688l-6.754,42.557
			C306.247,170,281.859,165.26,256.458,160.208z M429.039,413.956l-79.388-79.388l34.214-215.557
			c0.49-3.083-0.396-6.229-2.417-8.604c-2.031-2.375-4.99-3.74-8.115-3.74H138.667c-3.125,0-6.083,1.365-8.115,3.74
			c-0.827,0.971-1.329,2.13-1.759,3.303L98.044,82.961C139.788,44.822,195.134,21.333,256,21.333
			c129.396,0,234.667,105.271,234.667,234.667C490.667,316.866,467.178,372.212,429.039,413.956z"/>
	</g>
</g>
<g>
</g>
<g>
</g>
<g>
</g>
<g>
</g>
<g>
</g>
<g>
</g>
<g>
</g>
<g>
</g>
<g>
</g>
<g>
</g>
<g>
</g>
<g>
</g>
<g>
</g>
<g>
</g>
<g>
</g>
</svg>
