<?xml version="1.0" encoding="iso-8859-1"?>
<!-- Generator: Adobe Illustrator 19.0.0, SVG Export Plug-In . SVG Version: 6.00 Build 0)  -->
<svg version="1.1" id="Capa_1" xmlns="http://www.w3.org/2000/svg" xmlns:xlink="http://www.w3.org/1999/xlink" x="0px" y="0px"
	 viewBox="0 0 512 512" style="enable-background:new 0 0 512 512;" xml:space="preserve">
<g>
	<g>
		<path d="M256,0C116.519,0,0,116.134,0,256c0,139.481,116.134,256,256,256c139.487,0,256-116.14,256-256
			C512,116.513,395.86,0,256,0z M256,482.009c-57.239-0.005-114.497-22.308-159.099-66.91
			C11.255,329.454,7.845,197.225,86.639,107.852l88.183,88.183C153.404,186.207,129.954,181,106,181c-8.284,0-15,6.716-15,15
			c0,26.354,6.37,52.575,18.42,75.827c7.244,13.976,16.547,26.919,27.464,38.32c-23.892,9.704-39.872,23.768-40.878,24.667
			c-6.677,5.965-6.665,16.418,0,22.372C97.552,358.566,134.39,391,181,391c23.621,0,44.72-8.329,60-16.726V406
			c0,8.284,6.716,15,15,15s15-6.716,15-15v-31.726C286.28,382.671,307.38,391,331,391c11.941,0,23.233-2.136,33.462-5.326
			l39.687,39.687C361.321,463.121,308.673,482.014,256,482.009z M312.143,333.356l27.16,27.16
			c-20.212,2.246-39.837-4.177-57.375-14.55C289.884,341.251,300.339,336.218,312.143,333.356z M310.428,289.214
			c6.167-15.914,10.171-32.477,12.012-49.237c19.551-15.42,42.973-25.101,67.604-28.031c-4.201,34.958-22.067,67.305-49.743,89.49
			c-6.017-0.545-11.629-0.585-17.735-0.083L310.428,289.214z M286.82,265.607l-67.237-67.237
			c3.707-30.412,15.842-59.983,36.417-84.882C291.777,156.783,302.045,214.199,286.82,265.607z M274.534,295.747
			c-5.142,9.719-11.316,19.031-18.534,27.766c-20.013-24.22-32.038-52.859-36.092-82.392L274.534,295.747z M230.012,346
			c-12.051,7.12-29.742,15-49.012,15c-19.272,0-36.967-7.883-49.013-14.999C144.038,338.881,161.729,331,181,331
			S217.961,338.88,230.012,346z M181,301c-3.149,0-6.249,0.159-9.301,0.436c-27.677-22.185-45.543-54.533-49.744-89.491
			c24.645,2.929,48.046,12.616,67.606,28.045c2.444,22.229,8.682,44.114,18.734,64.59C199.755,302.387,190.59,301,181,301z
			 M356.481,335.268c9.064,2.929,17.143,6.954,23.589,10.767c-2.527,1.498-5.319,3.026-8.312,4.51L356.481,335.268z
			 M425.362,404.149l-31.49-31.49c13.196-7.609,21.411-14.836,22.123-15.472c6.667-5.957,6.674-16.408,0-22.372
			c-1.007-0.899-16.987-14.962-40.879-24.667c10.917-11.401,20.221-24.344,27.464-38.32C414.63,248.575,421,222.354,421,196
			c0-8.284-6.716-15-15-15c-29.321,0-57.934,7.819-82.963,22.375c-3.453-44.78-22.257-88.587-56.431-122.761
			c-5.854-5.854-15.356-5.857-21.213,0c-26.278,26.278-43.468,58.253-51.581,91.985l-85.96-85.96
			C150.677,48.884,203.334,29.99,256,29.99c57.246,0,114.492,22.304,159.1,66.911C500.745,182.547,504.155,314.775,425.362,404.149z
			"/>
	</g>
</g>
<g>
</g>
<g>
</g>
<g>
</g>
<g>
</g>
<g>
</g>
<g>
</g>
<g>
</g>
<g>
</g>
<g>
</g>
<g>
</g>
<g>
</g>
<g>
</g>
<g>
</g>
<g>
</g>
<g>
</g>
</svg>
