<?xml version="1.0" encoding="UTF-8" standalone="no"?>
<!-- Created with Inkscape (http://www.inkscape.org/) -->

<svg
   xmlns:dc="http://purl.org/dc/elements/1.1/"
   xmlns:cc="http://creativecommons.org/ns#"
   xmlns:rdf="http://www.w3.org/1999/02/22-rdf-syntax-ns#"
   xmlns:svg="http://www.w3.org/2000/svg"
   xmlns="http://www.w3.org/2000/svg"
   version="1.1"
   width="300"
   height="300"
   id="svg24628">
  <defs
     id="defs24630" />
  <metadata
     id="metadata24633">
    <rdf:RDF>
      <cc:Work
         rdf:about="">
        <dc:format>image/svg+xml</dc:format>
        <dc:type
           rdf:resource="http://purl.org/dc/dcmitype/StillImage" />
        <dc:title></dc:title>
      </cc:Work>
    </rdf:RDF>
  </metadata>
  <g
     transform="translate(0,-752.36218)"
     id="layer1">
    <path
       d="M 300,902.36218 C 300,985.20385 232.84167,1052.3622 150,1052.3622 67.166668,1052.3622 1.2e-6,985.20385 1.2e-6,902.36218 c 0,-82.84167 67.1666668,-150 149.9999988,-150 82.84167,0 150,67.15833 150,150"
       id="path7880"
       style="fill:#0096d6;fill-opacity:1;fill-rule:nonzero;stroke:none" />
    <g
       transform="matrix(8.3333333,0,0,-8.3333333,90.161679,909.75971)"
       id="g7882">
      <path
         d="m 0,0 0,-2.328 1.802,0 c 1.014,0 1.786,0.21 1.786,1.156 C 3.588,-0.069 2.625,0 1.313,0 L 0,0 z m 0,4.393 0,-2.1 1.715,0 c 0.822,0 1.418,0.367 1.418,1.103 0,0.98 -0.806,0.997 -1.681,0.997 L 0,4.393 z m -4.131,-9.661 0,12.602 6.021,0 c 2.835,0 5.092,-0.666 5.092,-3.168 0,-1.295 -0.839,-2.24 -1.644,-2.748 1.365,-0.35 2.1,-1.523 2.1,-2.888 0,-2.818 -2.153,-3.798 -5.426,-3.798"
         id="path7884"
         style="fill:#ffffff;fill-opacity:1;fill-rule:nonzero;stroke:none" />
    </g>
    <g
       transform="matrix(8.3333333,0,0,-8.3333333,168.58754,953.65891)"
       id="g7886">
      <path
         d="m 0,0 0,12.602 4.13,0 0,-9.662 5.671,0 0,-2.94"
         id="path7888"
         style="fill:#ffffff;fill-opacity:1;fill-rule:nonzero;stroke:none" />
    </g>
  </g>
</svg>
